# xmcd
#
# Track frame offsets: 
#        150
#        16826
#        35619
#        53735
#        77609
#        97739
#        112063
#        138490
#        166226
#        192521
#
# Disc length: 2778 seconds
#
# Revision: 0
# Processed by: cddbd v1.5.2PL0 Copyright (c) Steve Scherf et al.
# Submitted via: ExactAudioCopyFreeDBPlugin 1.0
#
DISCID=790ad80a
DTITLE=The White Visitation - Everything You Do Is Music
DYEAR=2004
DGENRE=
TTITLE0=Penumbra
TTITLE1=Early Grave
TTITLE2=A Portrait of the Artist Formerly Known As a Young Man
TTITLE3=Love is a Radio
TTITLE4=Motor Home
TTITLE5=The Girl Who Hated My Guitar
TTITLE6=Never Joined the Army
TTITLE7=The Trappings of An Adult Life
TTITLE8=Work Is You
TTITLE9=We Can Still Be Friends
EXTD=
EXTT0=
EXTT1=
EXTT2=
EXTT3=
EXTT4=
EXTT5=
EXTT6=
EXTT7=
EXTT8=
EXTT9=
PLAYORDER=
